<?xml version="1.0" encoding="UTF-8"?>
<svg version="1.1" viewBox="0 0 2000 2000" width="500" height="500" xmlns="http://www.w3.org/2000/svg">
<path transform="translate(1387,562)" d="m0 0h2l-1 4-12 19-13 20-10 15-15 26-20 34-13 22-12 23-12 22-24 47-8 16-8 17-8 9-16 9-17 9-3 1v2l8-1 19-9 8-3-1 5-14 35-13 34-14 39-14 40-5 3-30 11-17 8-11 7-1 1 10-1 24-8 23-6h2l-1 5-12 31-12 26-10 19-16 24-10 13-9 10-16 16-18 13-17 8-6 2h-8l1-12 7-36 15-59 9-29 12-36 10-29 8-21 11-28 11-24 14-32 15-29 11-22 9-15 12-23 9-17 5-10h-2l-2 4-8 9-9 12-11 17-10 17-7 11-12 23-20 39-18 41-17 40-10 24-9 24-12 36-8 27-15 54-10 42-9 49-3 18-12 30-4 4-2-10-2-20v-10l3-21 3-19-4-9-11-16-11-20-8-20-7-23-4-26-1-25 2-31 3-24 6-28 6-19 2-3h2l2 6 4 24 5 26 9 27 3 4-1-11-3-12-4-23-4-21-3-22v-20l3-12 9-17 10-17 7-11 7-10 16-25 8-10 7-8 3-1v11l-1 11v23l1 16 1 6 2-10 2-18 2-34 3-17 3-8 13-16 7-8 11-12 7-8 7-7 6-7h2l2-4 15-15 8-7 10-9 3-1v14l-1 20 2 5h2l1-3 1-39 6-8 11-9 12-10 19-14 16-11 24-16 15-9 24-14 27-14 34-17 29-13 15-6z" fill="#F3A336"/>
<path transform="translate(1067,798)" d="m0 0h4l3 6v3h2l1-3 1 6v5l4 2 1-2v4l3 1v7l3 7v5l-1 2 1 4h2l2 4 7 6 1 5 5 1v2h-3v2h3l1 3-4 17-3 7-2 13-4 10-3 8-7 18-11 33-4 10-6 20-2 5-2 13-14 41-15 54-8 30-8 35-8 44-3 18-12 30-4 4-2-10-2-20v-10l3-21 3-19-4-9-11-16-11-20-8-20-7-23-4-26-1-25 2-31 3-24 6-28 6-19 2-3h2l2 6 4 24 5 26 9 27 3 4-1-11-3-12-4-23-4-21-3-22v-20l3-12 9-17 10-17 7-11 7-10 16-25 8-10 7-8 3-1v11l-1 11v23l1 16 1 6 2-10 3-25 5-14 3-11 1-5 1-9 1-8 3-2 2-4z" fill="#E97B2B"/>
<path transform="translate(1465,733)" d="m0 0 2 1 5 92 6 107 4 59 9 136 5 82 3 40v6l-1 1-34-1h-42l-44 4-38 6-28 6-35 10-27 10-27 11-24 11-19 10-20 11-28 17-22 15-21 16-16 13-11 9-7 7-8 7-7 7-8 7-5 2-1-10 1-28 4-7 12-11 11-9 13-11 30-23 15-10 16-11 22-13 22-12 29-15 19-9 27-11 36-12 26-7 29-7 31-5 33-4 33-2h21l1-30 1-35 2-170 2-248z" fill="#F9DB69"/>
<path transform="translate(533,740)" d="m0 0h3l1 136 1 96 3 180 1 43 1 23h19l33 2 35 4 36 6 30 7 35 11 23 8 28 11 33 16 25 13 22 13 23 15 16 11 17 13 16 12 17 14 13 12 8 8 1 2v32l-1 7-5-2-16-16-8-7-10-9-14-11-12-10-18-13-16-11-22-14-25-14-27-14-23-11-33-13-33-11-34-9-28-6-34-5-29-3h-62l-18 1-3-2v-19l3-40 9-144 7-110 7-138 4-58z" fill="#E97D2C"/>
<path transform="translate(1387,1229)" d="m0 0 10 1 18 1 8 2 3 3 1 6-8 3-9 1-13 3-9 2-20 5-19 4-17 4-6 2-1 3-35 9-30 10-30 12-24 11-19 9-22 12-15 9-21 13-19 13-21 16-16 13-11 9-7 7-8 7-7 7-8 7-5 2-1-10 1-28 4-7 12-11 11-9 13-11 30-23 15-10 16-11 22-13 22-12 29-15 19-9 27-11 36-12 26-7 13-3 11 1 11-1 9-2h16l14-1z" fill="#F3A437"/>
<path transform="translate(548,1218)" d="m0 0h14l33 2 35 4 36 6 30 7 35 11 23 8 28 11 33 16 25 13 22 13 23 15 16 11 17 13 16 12 17 14 13 12 8 8 1 2v32l-1 7-5-2-16-16-8-7-10-9-14-11-12-10-18-13-16-11-22-14-25-14-27-14-23-11-33-13-33-11-34-9-28-6-34-5-17-2v-1l6-1 28-1 7 1 8-1 13-2 6-3v-3h-2l-5-6v-2l-12-3-8-3-16-4-31-4-10-2-1-1-28-1z" fill="#F3A437"/>
<path transform="translate(543,659)" d="m0 0h30l35 3 32 5 42 8 28 7 41 13 33 13 30 14 25 13 20 12 17 12 16 12 14 12 11 9 16 15 9 9 7 8 14 17 11 15 8 12-3 9-6 10-3 3-5-2-11-13-8-10-13-15-12-13-21-21-8-7-14-12-14-11-19-14-17-11-22-14-27-15-26-13-27-11-28-11-25-8-35-10-23-5-57-11-15-3z" fill="#F3A538"/>
<path transform="translate(1176,1298)" d="m0 0h10l1 4-5 9-5 3-5 4h-2v2l-5 3h-2v2l-4 2-5 5h-2v2h-3l-2 4-7 2-1 3-11 7-12 10h-2l-1 5-19 14-16 13-10 8-13 12-8 7-7 7-8 7-5 2-1-10 1-28 4-7 12-11 11-9 13-11 30-23 15-10 16-11 9-2 15-6 7-3 2-1 2 1 1-2 9-2z" fill="#E97C2B"/>
<path transform="translate(1387,562)" d="m0 0h2l-1 4-12 19-13 20-10 15-15 26-20 34-13 22-12 23-12 22-24 47-8 16-8 17-5 5 2-5 6-12 10-21 3-8h2l1-5 1-3h2l1-5 7-16 1-5 9-17 5-11 4-9 6-12 4-9 7-15 4-11 3-7 5-15v-6l-3-7 1-4-3-1v-3l-3 1-2-6-5 1-4-2-5 1-7 1-19 7-17 8-6 3h-3v2l-9 4-3 1v2l-6 1-1 2-2-1-2 4h-3v2h-5v2h-2l-2 4h-4v2l-7 4-2 2h-3v2l-10 7-4 1 5-5 20-15 36-24 15-9 24-14 27-14 34-17 29-13 15-6z" fill="#FADD6B"/>
<path transform="translate(1082,1045)" d="m0 0h3l3 4 2-2 2 9 2 10v6h2l-1 8 3 3 1 5 3 3 2 3v3l4 1 3 4-2 11-5 7v2h-2l-1 5-5 8h-2l-2 5-4 5-1 3-4 3h-2v2l-4 1-2 4h-2v2l-5 2v2l-15 8-7 3h-3v-2h-3v-2h-2v-10l3-11 3-3 1-4 7-21 3-11 4-8 2-6 3-7 3-9 5-21 4-9 4-5z" fill="#E97B2B"/>
<path transform="translate(820,726)" d="m0 0 6 2 25 14 15 10 17 12 16 13 13 11 10 9 8 7 12 12 7 8 14 17 11 15 8 12-3 9-6 10-3 3-5-2-11-13-8-10-13-15-12-13-21-21-8-7-14-12-14-11-19-14-17-11-20-13 2-1 15 8 9 5 5 4 5 1v2l5 2 12 7 10 7h2l4 4 4 2v2l4 1v2l4 1v2l10 4v2l5-1v-6l-2-4h-2l-3-4v-2l-4-2-2-2-8-6-5-4-5-5v-2h-3v-2l-4-1v-2l-4-2-8-6-1-3-4-1-3-2-2-3-7-3-4-4v-2h-4v-2l-4-1z" fill="#FADD69"/>
<path transform="translate(827,1290)" d="m0 0 5 2 22 12 22 14 15 10 11 8 19 14 13 10 17 14 13 12 8 8 1 2v32l-1 7-5-2-16-16-8-7-10-9-14-11-12-10-18-13-16-11-22-14-25-14-5-3 3-1 19 7 7 3 5 2 1 2 4 1v2l4 1 10 5 6 2v2l13 3 7 3-1-8-2-1-1-4-4-2-5-4-1-2-4-2-5-5-3-1v-2l-4-1-3-3-9-6-4-4-3-1-7-8-7-3-4-2-1-3-2-1v-2h-3z" fill="#FADD6A"/>
<path transform="translate(1444,658)" d="m0 0h15v2l-15 4-48 8-54 12-5-1 3-8 4-4 4-2 44-7 18-2z" fill="#F3A639"/>
<path transform="translate(543,659)" d="m0 0h30l35 3 32 5 42 8v1h-13-1v1l-14-1-4-3h-14v5l-26-5-67-13z" fill="#F1A037"/>
<path transform="translate(994,1221)" d="m0 0h2l6 10 3-7 1 2-3 18-12 30-4 4-2-10-1-13 2-1 3-5 1-4 1-11 2-12z" fill="#F3A437"/>
<path transform="translate(1444,658)" d="m0 0h15v2l-15 4-48 8-20 4v-2l19-5h-4v-2l7-1v-1h-20v-1l21-3z" fill="#F7CC5D"/>
<path transform="translate(533,740)" d="m0 0h3v102h-1l-1-16v4h-2v6l-1-3h-2v-18l2-31 1-4v-34z" fill="#F3AD3F"/>
<path transform="translate(1363,668)" d="m0 0 6 2-1 2h-2l-1 3-3 1-3 3h-4v2l-13 3-5-1 3-8 4-4 4-2h13z" fill="#EA832F"/>
<path transform="translate(635,672)" d="m0 0h19l3 3 8 1-2-2 13 2-3 3-8 2-7-1-15-2-1-1-7-1z" fill="#E97C2B"/>
<path transform="translate(621,665)" d="m0 0 14 1 47 9v1h-13-1v1l-14-1-4-3-9-1 1-3h-8l-13-3z" fill="#F4B24C"/>
<path transform="translate(985,1257)" d="m0 0h11l1 2-6 15-4 4-2-10z" fill="#EB842E"/>
<path transform="translate(1040,821)" d="m0 0h2v11l-2 1-2-2h-3l-1 2-8 8-4 7-13 19-1-2 16-25 8-10 7-8z" fill="#F4B044"/>
<path transform="translate(532,748)" d="m0 0h1v36h-2v16l-2 4v-15z" fill="#EB832D"/>
<path transform="translate(543,659)" d="m0 0h30l10 2v2l-9-1h-9l3 2-10-1-15-3z" fill="#F9DB6A"/>
<path transform="translate(1444,658)" d="m0 0h15v2l-10 3h-11l-1-1-9 1-2-2z" fill="#FBE6AD"/>
<path transform="translate(1146,746)" d="m0 0 4 2v21l-3-1-1-10z" fill="#E97B2B"/>
<path transform="translate(1255,794)" d="m0 0 1 2-16 32-4 4 2-5 6-12 9-19z" fill="#FADE71"/>
<path transform="translate(994,1261)" d="m0 0 1 3-5 11-3 3 2-11-2-1h2v-3z" fill="#FADD6B"/>
<path transform="translate(1202,661)" d="m0 0m-2 1 2 1-7 7h-3v2l-10 7-4 1 5-5z" fill="#FAE283"/>
<path transform="translate(1026,838)" d="m0 0 2 1-7 10-7 11-5 7-1-2 16-25z" fill="#F5B445"/>
<path transform="translate(1e3 1236)" d="m0 0 1 4-5 15-3 3-1-3h2l1-6 4-12z" fill="#FADD6C"/>
<path transform="translate(624,667)" d="m0 0 10 1 8 1v2h-15v-1l-9-1v-1z" fill="#E97B2B"/>
<path transform="translate(1066,995)" d="m0 0h2l-3 9-4 11h-1v-6l4-12z" fill="#F4B142"/>
<path transform="translate(621,665)" d="m0 0 14 1 10 2v1h-11l-13-3z" fill="#F5B94F"/>
<path transform="translate(642,669)" d="m0 0h9l6 1-3 2h-13z" fill="#F4B045"/>
<path transform="translate(1143,708)" d="m0 0h2v11l-2-4-5-1z" fill="#FADD6D"/>
<path transform="translate(1164,690)" d="m0 0h2v2l-8 7-3 3-2 3v-4l4-5z" fill="#F8D174"/>
<path transform="translate(1212,654)" d="m0 0m-1 1 1 3h-2l-2 4h-4v2l-3-1 5-5z" fill="#FADF76"/>
<path transform="translate(1217,841)" d="m0 0 1 2-3 3-10 5-2-1z" fill="#F7CC5D"/>
<path transform="translate(985,1263)" d="m0 0 4 4-1 8-2 1z" fill="#EE8F30"/>
<path transform="translate(962,954)" d="m0 0h2v6l-5 3 1-6z" fill="#F3AA3D"/>
</svg>
